<svg width="38" height="32" viewBox="0 0 38 32" fill="none" xmlns="http://www.w3.org/2000/svg">
<g filter="url(#filter0_d_2149_2206)">
<path d="M34 16C34.0001 17.3846 33.5896 18.738 32.8204 19.8893C32.0513 21.0405 30.958 21.9378 29.6788 22.4677C28.3997 22.9975 26.9921 23.1361 25.6342 22.866C24.2763 22.5959 23.029 21.9291 22.05 20.95L22.0087 20.9063L14.515 12.4438C13.8134 11.7504 12.9224 11.28 11.9541 11.0918C10.9858 10.9037 9.98351 11.0061 9.07331 11.3863C8.1631 11.7664 7.38568 12.4073 6.83887 13.2283C6.29205 14.0492 6.00029 15.0136 6.00029 16C6.00029 16.9864 6.29205 17.9508 6.83887 18.7718C7.38568 19.5927 8.1631 20.2336 9.07331 20.6138C9.98351 20.9939 10.9858 21.0964 11.9541 20.9082C12.9224 20.72 13.8134 20.2497 14.515 19.5563L15.58 18.3538C15.6671 18.2553 15.7727 18.1749 15.8908 18.1172C16.009 18.0596 16.1373 18.0257 16.2686 18.0177C16.3998 18.0096 16.5313 18.0275 16.6556 18.0702C16.7799 18.113 16.8946 18.1798 16.9931 18.2669C17.0916 18.354 17.172 18.4596 17.2296 18.5778C17.2873 18.6959 17.3211 18.8242 17.3292 18.9555C17.3373 19.0867 17.3194 19.2182 17.2767 19.3425C17.2339 19.4668 17.1671 19.5815 17.08 19.68L15.9937 20.9063L15.9525 20.95C14.9735 21.9289 13.7262 22.5955 12.3684 22.8656C11.0105 23.1356 9.60308 22.9969 8.32404 22.4671C7.045 21.9373 5.95179 21.0401 5.18265 19.8889C4.41352 18.7378 4.00299 17.3845 4.00299 16C4.00299 14.6156 4.41352 13.2622 5.18265 12.1111C5.95179 10.96 7.045 10.0628 8.32404 9.53293C9.60308 9.0031 11.0105 8.86443 12.3684 9.13447C13.7262 9.40451 14.9735 10.0711 15.9525 11.05L15.9937 11.0938L23.4875 19.5563C24.1891 20.2497 25.0801 20.72 26.0484 20.9082C27.0166 21.0964 28.019 20.9939 28.9292 20.6138C29.8394 20.2336 30.6168 19.5927 31.1636 18.7718C31.7104 17.9508 32.0022 16.9864 32.0022 16C32.0022 15.0136 31.7104 14.0492 31.1636 13.2283C30.6168 12.4073 29.8394 11.7664 28.9292 11.3863C28.019 11.0061 27.0166 10.9037 26.0484 11.0918C25.0801 11.28 24.1891 11.7504 23.4875 12.4438L22.4225 13.6463C22.2466 13.8452 21.9989 13.9661 21.7339 13.9824C21.4689 13.9987 21.2083 13.909 21.0094 13.7331C20.8104 13.5573 20.6895 13.3096 20.6733 13.0446C20.657 12.7796 20.7466 12.5189 20.9225 12.32L22.0087 11.0938L22.05 11.05C23.029 10.071 24.2763 9.40418 25.6342 9.13405C26.9921 8.86391 28.3997 9.00253 29.6788 9.53239C30.958 10.0622 32.0513 10.9595 32.8204 12.1108C33.5896 13.262 34.0001 14.6155 34 16Z" fill="#E2E4E9"/>
</g>
<defs>
<filter id="filter0_d_2149_2206" x="-1" y="0" width="40" height="40" filterUnits="userSpaceOnUse" color-interpolation-filters="sRGB">
<feFlood flood-opacity="0" result="BackgroundImageFix"/>
<feColorMatrix in="SourceAlpha" type="matrix" values="0 0 0 0 0 0 0 0 0 0 0 0 0 0 0 0 0 0 127 0" result="hardAlpha"/>
<feOffset dy="4"/>
<feGaussianBlur stdDeviation="2"/>
<feComposite in2="hardAlpha" operator="out"/>
<feColorMatrix type="matrix" values="0 0 0 0 0 0 0 0 0 0 0 0 0 0 0 0 0 0 0.25 0"/>
<feBlend mode="normal" in2="BackgroundImageFix" result="effect1_dropShadow_2149_2206"/>
<feBlend mode="normal" in="SourceGraphic" in2="effect1_dropShadow_2149_2206" result="shape"/>
</filter>
</defs>
</svg>
